<svg width="25" height="25" viewBox="0 0 25 25" fill="none" xmlns="http://www.w3.org/2000/svg">
<path d="M4.32315 0.00604978C5.06204 0.00604978 5.80191 0.0275296 6.5408 0.001168C7.59789 -0.0359335 8.56518 0.815448 8.62375 1.90018C8.66376 2.63635 8.68329 3.37448 8.79651 4.10674C8.90974 4.83901 9.06396 5.56054 9.29138 6.26351C9.57054 7.12563 9.42608 7.86766 8.83946 8.5765C8.16206 9.39566 7.55299 10.2715 6.91073 11.1199C6.83069 11.2254 6.82776 11.3083 6.89219 11.4265C7.73356 12.9594 8.72331 14.3809 10.0059 15.5819C11.0805 16.5875 12.2899 17.4018 13.5773 18.1077C13.6935 18.1711 13.7813 18.1692 13.8868 18.0882C14.7789 17.4096 15.6779 16.7398 16.5651 16.0554C17.1234 15.6248 17.7344 15.4647 18.4167 15.6463C19.2327 15.863 20.0419 16.0974 20.8803 16.2204C21.589 16.3249 22.3025 16.3522 23.015 16.3834C24.1395 16.4323 24.9896 17.2836 24.9945 18.4104C25.0013 19.9374 25.0023 21.4644 24.9945 22.9924C24.9886 24.124 24.1121 24.9949 22.9779 24.9998C19.6554 25.0144 16.4851 24.3163 13.4622 22.9426C10.7975 21.7309 8.45196 20.0662 6.42757 17.9573C3.595 15.0058 1.66822 11.5436 0.67165 7.5728C0.223631 5.7851 -0.00574707 3.97005 0.000109385 2.12572C0.00401369 0.869148 0.852224 0.0099552 2.10551 0.00702614C2.8444 0.00507343 3.58426 0.00702614 4.32315 0.00702614V0.00604978Z" fill="white"/>
</svg>
